<?xml version="1.0" standalone="no"?>
<!DOCTYPE svg PUBLIC "-//W3C//DTD SVG 20010904//EN"
 "http://www.w3.org/TR/2001/REC-SVG-20010904/DTD/svg10.dtd">
<svg version="1.0" xmlns="http://www.w3.org/2000/svg"
 width="640.000000pt" height="640.000000pt" viewBox="0 0 640.000000 640.000000"
 preserveAspectRatio="xMidYMid meet">

<g transform="translate(0.000000,640.000000) scale(0.100000,-0.100000)"
fill="#000000" stroke="none">
<path d="M2667 4752 c-9 -13 5 -61 20 -73 22 -19 37 3 29 45 -5 26 -12 36 -26
36 -10 0 -21 -3 -23 -8z"/>
<path d="M2753 4690 c-29 -12 -31 -50 -4 -50 37 0 71 19 71 40 0 22 -27 26
-67 10z"/>
<path d="M2633 4659 c-23 -7 -33 -16 -33 -29 0 -16 7 -20 33 -20 41 0 60 12
55 35 -4 23 -15 26 -55 14z"/>
<path d="M2700 4611 c0 -32 18 -71 34 -71 35 0 24 83 -12 88 -16 3 -22 -2 -22
-17z"/>
<path d="M3365 4556 c-146 -23 -231 -63 -364 -169 -81 -65 -108 -77 -174 -77
-54 0 -161 43 -229 91 -39 28 -104 21 -130 -13 -32 -42 -22 -80 72 -286 l91
-197 -27 -20 c-231 -170 -401 -378 -539 -660 -119 -244 -177 -463 -178 -680
-1 -211 45 -339 163 -456 183 -181 506 -250 1105 -236 340 8 507 33 668 98
196 79 312 203 363 390 28 98 25 312 -5 449 -95 436 -341 836 -644 1051 -38
26 -73 49 -79 51 -10 4 9 63 136 422 51 143 56 182 25 215 -41 44 -102 50
-254 27z m216 -70 c12 -25 15 -16 -123 -396 l-59 -165 -364 3 c-213 1 -365 6
-365 12 0 5 -17 46 -39 92 -138 299 -134 288 -122 314 14 32 28 31 102 -15 99
-59 178 -85 244 -78 62 6 97 25 203 109 131 104 249 145 420 147 88 1 93 0
103 -23z m-519 -1098 c2 -18 12 -24 47 -30 71 -12 125 -50 155 -110 28 -55 24
-68 -20 -68 -15 0 -24 8 -28 26 -11 44 -36 72 -82 95 -73 35 -74 34 -74 -165
l0 -175 60 -17 c133 -37 193 -107 193 -225 0 -126 -73 -216 -193 -240 l-60
-12 0 -48 c0 -66 -18 -72 -22 -8 l-3 52 -60 17 c-84 23 -117 43 -148 88 -26
36 -47 91 -47 119 0 7 12 13 28 13 24 0 31 -8 53 -59 32 -71 92 -121 146 -121
l33 0 -2 192 -3 192 -41 12 c-108 31 -175 91 -192 171 -11 51 -2 125 19 166
26 48 85 89 149 102 62 12 70 16 70 36 0 26 18 24 22 -3z"/>
<path d="M2948 3300 c-130 -69 -126 -240 7 -306 85 -41 85 -42 85 156 l0 170
-27 0 c-16 -1 -44 -10 -65 -20z"/>
<path d="M3082 2871 c-9 -6 -12 -46 -10 -162 3 -150 4 -154 25 -157 29 -4 99
59 114 105 15 46 6 118 -18 152 -25 33 -94 72 -111 62z"/>
<path d="M3854 4258 c-4 -6 7 -23 27 -39 l34 -27 -33 -19 c-35 -20 -41 -40
-15 -50 16 -6 111 40 125 61 9 14 -6 31 -57 61 -48 27 -70 31 -81 13z"/>
<path d="M1956 3601 c-8 -13 4 -41 18 -41 22 0 37 17 30 33 -7 18 -39 23 -48
8z"/>
<path d="M2016 3571 c-10 -16 5 -41 24 -41 23 0 32 13 24 34 -7 17 -39 22 -48
7z"/>
<path d="M1918 3544 c-9 -9 3 -44 16 -44 22 0 39 18 33 34 -6 15 -38 22 -49
10z"/>
<path d="M1991 3511 c-19 -12 -6 -43 16 -39 21 4 31 48 11 48 -7 0 -19 -4 -27
-9z"/>
<path d="M4424 2750 c-58 -23 -70 -95 -25 -141 58 -57 141 -18 141 66 0 50
-68 94 -116 75z m66 -84 c0 -26 -23 -40 -51 -31 -24 8 -25 51 -2 64 25 13 53
-4 53 -33z"/>
<path d="M1900 2083 c-43 -15 -54 -80 -18 -113 28 -25 48 -25 82 1 17 13 26
30 26 49 0 19 -9 36 -26 49 -27 21 -37 24 -64 14z m32 -75 c-15 -15 -26 -4
-18 18 5 13 9 15 18 6 9 -9 9 -15 0 -24z"/>
<path d="M3540 1730 c0 -26 35 -34 112 -27 66 6 73 9 65 32 -5 12 -24 15 -92
15 -78 0 -85 -2 -85 -20z"/>
<path d="M3313 1683 c-22 -8 -15 -40 10 -46 12 -3 65 -4 117 -3 195 5 190 4
190 25 0 10 -7 22 -16 25 -19 7 -283 7 -301 -1z"/>
</g>
</svg>
